inDegrees=yes
name=ik_example_mov
DataType=double
version=3
OpenSimVersion=4.5
endheader
time	pelvis_tilt	pelvis_list	pelvis_rotation	pelvis_tx	pelvis_ty	pelvis_tz	hip_flexion_r	hip_adduction_r	hip_rotation_r	knee_angle_r	knee_angle_r_beta	ankle_angle_r	subtalar_angle_r	mtp_angle_r	hip_flexion_l	hip_adduction_l	hip_rotation_l	knee_angle_l	knee_angle_l_beta	ankle_angle_l	subtalar_angle_l	mtp_angle_l	lumbar_extension	lumbar_bending	lumbar_rotation	arm_flex_r	arm_add_r	arm_rot_r	elbow_flex_r	pro_sup_r	wrist_flex_r	wrist_dev_r	arm_flex_l	arm_add_l	arm_rot_l	elbow_flex_l	pro_sup_l	wrist_flex_l	wrist_dev_l
16.27781796455383	-3.039309742483428e-11	2.931393654111748e-11	-1.273319589313318e-14	-2.038382700450528e-31	0.93	-8.180783016143723e-30	124.3007204559251	-40.88259589211501	33.88512868258215	119.8852797914791	2.092392857035538	-4.999958472221674	-4.379830457218585e-29	-4.570501681462121e-29	5.209618229486597e-29	-6.931486385353457e-27	-5.211775288292249e-40	4.294104151053261e-13	7.494626645970421e-15	5.079440607053034e-27	-4.074399999144737e-29	-6.962814497154408e-29	6.26023258500831e-25	1.444924789987781e-40	1.917538085598115e-25	6.041081445589794e-28	-4.254082748945117e-28	7.200046714122507e-27	4.294104154366286e-13	4.294094566979507e-13	-1.577584250242564e-27	2.534918395629461e-28	1.201327359757439e-27	2.302989555843703e-29	-3.241817619153007e-28	4.294094076794109e-13	4.294087306676053e-13	-1.532822810309829e-26	-1.037467217371055e-28
16.28444409370422	-7.827481034603108e-14	0	0	-1.246829812799393e-51	0.93	0	125.5082996039007	-41.44739564496906	35.17479160744817	119.777602280786	2.090513529943986	-4.999959496748767	-2.33670253783859e-54	0	0	0	0	0	-9.371490014211285e-42	0	0	0	5.981958496866791e-52	0	0	0	0	0	4.793725781841989e-39	0	1.469334669626539e-51	0	0	-6.283726751172774e-37	0	0	4.793725781841989e-39	0	2.456850443967972e-37
16.2953097820282	-7.827481034268501e-14	1.383942009486896e-15	2.859957236228444e-24	1.675090228339154e-16	0.93	1.937257531178512e-16	125.9705960044593	-41.68607922360465	35.69986763580572	119.6319907973755	2.087972130129786	-4.999959248895191	5.637522211550017e-17	-6.241213144486528e-19	6.813926998019784e-34	3.908854233950824e-25	-4.511778531391512e-24	1.995193026377113e-13	3.482268780568337e-15	1.151449416473954e-16	-4.16629957361123e-17	2.769662830763879e-18	-1.546584785053795e-13	1.629299733601014e-13	-1.441038037335798e-13	3.012442036773489e-15	1.199031850328165e-16	-5.683213253111842e-17	1.995191677448377e-13	1.995177026425711e-13	-6.633286466166667e-16	1.96893609576817e-15	3.06451910870214e-16	5.28342880580237e-17	5.998700558229615e-17	1.9952092835871e-13	1.995196340551755e-13	-8.614282703388191e-16	-3.803138343488244e-15
16.3041524887085	-8.111643461649099e-12	-1.516843316526708e-11	-1.10253733793192e-12	2.118759395622451e-20	0.93	1.080355299917368e-20	126.3993096259465	-42.01193060509593	36.26247062557419	119.7208145598059	2.089522397238218	-4.99995886675402	2.718521075354051e-23	-3.148158991071126e-23	-5.025757436547524e-31	-1.073778400489243e-22	-3.504105643388079e-27	1.600001592478517e-13	2.792529582540133e-15	8.47615235031093e-18	3.979693739223284e-23	9.843913317721676e-23	1.1831821554986e-17	9.484008977395632e-25	3.098803076420324e-17	5.606694669723364e-23	7.300932358652246e-19	-1.010150633597304e-17	1.600001591916773e-13	1.599990710594264e-13	-4.393854502255073e-21	-4.628090585392795e-19	1.647448192360341e-18	3.239110828413236e-22	-6.308987897111341e-18	1.599996234776529e-13	1.600002335141677e-13	7.185168754160757e-20	-1.361026784500029e-19
16.31086540222168	-7.827481034599412e-14	4.321539656036801e-18	-2.224816503682432e-26	-1.600587901772538e-20	0.93	-6.033830325345882e-20	126.93137847642	-42.41324386906818	36.96436464580953	119.8053139393777	2.090997189627599	-4.999958494075408	3.436561095495606e-17	-8.904466580789768e-18	-1.921537316606647e-28	2.169988923276037e-17	4.170614572308878e-33	2.060280606616167e-15	3.595270906280531e-17	-4.569251065386919e-17	6.12900333278074e-17	-7.435060105806496e-19	-4.32451421755475e-26	5.565920725936361e-25	3.59196193190016e-15	2.670385948232714e-20	2.043651793554728e-17	-1.854548928017691e-17	2.059554527944133e-15	2.059554461721668e-15	1.844482085169373e-19	-1.992590682355959e-18	2.7372998796414e-17	-2.875699245966202e-17	-2.672787091488762e-17	2.059559301618795e-15	2.059554482094272e-15	-2.966389041097777e-18	6.336190475395469e-18
16.31680107116699	-7.827481034612591e-14	1.389516530564465e-15	2.20387400799156e-25	2.890464211910123e-18	0.93	-7.162428338526194e-19	128.0327585744762	-42.99977549517408	38.19054571014558	119.2647072870157	2.081561823585698	-4.999958222210624	-8.597665044104192e-16	-2.276081905845682e-14	2.651940315028763e-36	-8.6848861926186e-22	-2.732761353201068e-34	6.660568918258386e-06	1.162488577981922e-07	1.815548522437448e-16	8.291775985802827e-16	1.952319010448162e-14	-4.951649671650556e-17	-2.128287338537369e-33	-4.211335181790424e-16	-3.884327893953649e-13	-5.600832575168388e-20	-9.680273373240017e-16	6.524266297410619e-06	6.663435764468771e-06	-3.430323630261292e-17	-2.293684959950931e-16	-1.812761627632848e-15	-9.569242532174562e-16	8.034365721649232e-14	6.663439331605425e-06	6.663433701304994e-06	2.102210723854683e-16	2.74495645613545e-15
16.32230758666992	-7.827481034592449e-14	1.50743851969658e-16	-1.583043630593169e-24	-3.132932388950846e-18	0.93	-2.648199619154997e-18	128.4201580813485	-43.29040397857661	38.62624272629729	118.8215867430296	2.07382791110991	-4.999957997982494	-6.189014489755868e-18	7.030337503949427e-19	2.428051306289727e-35	-1.673116221711152e-25	2.705547651315648e-25	0	-8.568613976019831e-17	-7.912140775937068e-19	3.52553279089182e-17	6.426881575386787e-17	2.172475742717312e-13	2.352936844893935e-14	-2.789146009355808e-15	-3.304226657876341e-20	-4.028598340532072e-18	4.351950675727089e-17	0	0	1.03677889728014e-17	4.904554618752217e-17	3.759991438332203e-17	6.20569467696745e-17	-2.175248769870567e-17	0	0	-5.275398605710325e-19	2.722403981089871e-17
16.33029985427856	-7.827481034603108e-14	-2.159284493711376e-14	-6.73446186696872e-31	-4.143720747641802e-17	0.93	-2.246478427089466e-16	128.8017668102172	-43.60085893767215	39.02457311669178	118.3480238487908	2.065562679390171	-4.999958613360103	3.979419812198427e-24	1.756307016759307e-23	2.134927924824101e-37	6.512504714472059e-18	-4.300680435362228e-32	3.797225929241961e-07	6.627409490821875e-09	-3.681567067007852e-23	3.433357331739569e-23	-8.15236550102203e-23	-1.723020190259114e-15	1.689490415396072e-34	-2.058174348936617e-16	2.2628191902333e-15	-3.608113118690712e-16	-5.918462123897466e-15	3.797225488327863e-07	3.797226664438616e-07	9.052681620980194e-19	-1.978843984417266e-20	5.775325354192394e-16	5.694252688388118e-24	-2.454065516565165e-23	3.797225488327671e-07	3.79722666443862e-07	-1.456083682987916e-20	-1.757219653257658e-21
16.335289478302	-7.827481034603108e-14	-1.069468657263368e-16	5.132302507780571e-33	2.911161192591308e-18	0.93	-3.13759116740702e-17	129.1839339324519	-43.89171914804071	39.50012590834676	118.4419244998785	2.067201554921418	-4.999958390086991	5.339375631619258e-24	1.793788378457793e-23	2.541496211937341e-36	-7.100398545885231e-18	1.804374838577602e-38	0	-2.163357234491392e-09	-1.138616743260843e-24	6.710802914306714e-24	-6.427211226824769e-23	3.161398277356482e-14	-7.105882490700003e-41	-5.548925281736514e-14	-7.680167385435078e-24	9.628864363440033e-14	-9.302592975818315e-16	0	0	9.289731858335401e-19	8.347773493886249e-20	4.04439381420752e-16	-6.446695685038864e-22	1.332672489012876e-22	0	0	-1.631949892846842e-19	-8.597528579595566e-20
